<svg width="1600" height="837" viewBox="0 0 1600 837" fill="none" xmlns="http://www.w3.org/2000/svg">
<mask id="mask0_10_22" style="mask-type:alpha" maskUnits="userSpaceOnUse" x="0" y="1" width="1600" height="836">
<rect y="1" width="1600" height="836" fill="black"/>
</mask>
<g mask="url(#mask0_10_22)">
<rect x="800" y="1" width="875" height="875" fill="black"/>
</g>
<rect x="940" y="681" width="520" height="75" fill="#FCE146"/>
<line x1="1600" y1="1.5" x2="800" y2="1.5" stroke="black"/>
<path d="M1128.28 731L1123.32 721.99H1121.92V731H1116.11V707.132H1125.87C1127.75 707.132 1129.35 707.461 1130.66 708.118C1132 708.775 1132.99 709.682 1133.65 710.838C1134.31 711.971 1134.64 713.241 1134.64 714.646C1134.64 716.233 1134.18 717.649 1133.28 718.896C1132.39 720.143 1131.08 721.027 1129.33 721.548L1134.84 731H1128.28ZM1121.92 717.876H1125.53C1126.59 717.876 1127.38 717.615 1127.91 717.094C1128.45 716.573 1128.72 715.836 1128.72 714.884C1128.72 713.977 1128.45 713.263 1127.91 712.742C1127.38 712.221 1126.59 711.96 1125.53 711.96H1121.92V717.876ZM1156.17 721.208C1156.17 721.752 1156.14 722.319 1156.07 722.908H1142.91C1143 724.087 1143.38 724.993 1144.03 725.628C1144.71 726.24 1145.54 726.546 1146.52 726.546C1147.97 726.546 1148.98 725.934 1149.54 724.71H1155.73C1155.41 725.957 1154.83 727.079 1154 728.076C1153.18 729.073 1152.15 729.855 1150.9 730.422C1149.66 730.989 1148.26 731.272 1146.72 731.272C1144.86 731.272 1143.21 730.875 1141.76 730.082C1140.31 729.289 1139.17 728.155 1138.36 726.682C1137.54 725.209 1137.13 723.486 1137.13 721.514C1137.13 719.542 1137.53 717.819 1138.32 716.346C1139.14 714.873 1140.27 713.739 1141.72 712.946C1143.17 712.153 1144.84 711.756 1146.72 711.756C1148.56 711.756 1150.19 712.141 1151.62 712.912C1153.04 713.683 1154.15 714.782 1154.95 716.21C1155.76 717.638 1156.17 719.304 1156.17 721.208ZM1150.22 719.678C1150.22 718.681 1149.88 717.887 1149.2 717.298C1148.52 716.709 1147.67 716.414 1146.65 716.414C1145.68 716.414 1144.85 716.697 1144.17 717.264C1143.51 717.831 1143.1 718.635 1142.95 719.678H1150.22ZM1158.08 721.48C1158.08 719.531 1158.45 717.819 1159.17 716.346C1159.92 714.873 1160.93 713.739 1162.2 712.946C1163.47 712.153 1164.88 711.756 1166.45 711.756C1167.78 711.756 1168.95 712.028 1169.95 712.572C1170.97 713.116 1171.75 713.83 1172.29 714.714V712.028H1178.11V731H1172.29V728.314C1171.73 729.198 1170.93 729.912 1169.91 730.456C1168.92 731 1167.75 731.272 1166.41 731.272C1164.87 731.272 1163.47 730.875 1162.2 730.082C1160.93 729.266 1159.92 728.121 1159.17 726.648C1158.45 725.152 1158.08 723.429 1158.08 721.48ZM1172.29 721.514C1172.29 720.063 1171.89 718.919 1171.07 718.08C1170.28 717.241 1169.3 716.822 1168.15 716.822C1166.99 716.822 1166 717.241 1165.19 718.08C1164.4 718.896 1164 720.029 1164 721.48C1164 722.931 1164.4 724.087 1165.19 724.948C1166 725.787 1166.99 726.206 1168.15 726.206C1169.3 726.206 1170.28 725.787 1171.07 724.948C1171.89 724.109 1172.29 722.965 1172.29 721.514ZM1181.16 721.48C1181.16 719.531 1181.52 717.819 1182.25 716.346C1183 714.873 1184 713.739 1185.27 712.946C1186.54 712.153 1187.96 711.756 1189.52 711.756C1190.77 711.756 1191.9 712.017 1192.92 712.538C1193.97 713.059 1194.78 713.762 1195.37 714.646V705.84H1201.19V731H1195.37V728.28C1194.83 729.187 1194.05 729.912 1193.03 730.456C1192.03 731 1190.86 731.272 1189.52 731.272C1187.96 731.272 1186.54 730.875 1185.27 730.082C1184 729.266 1183 728.121 1182.25 726.648C1181.52 725.152 1181.16 723.429 1181.16 721.48ZM1195.37 721.514C1195.37 720.063 1194.96 718.919 1194.15 718.08C1193.35 717.241 1192.38 716.822 1191.22 716.822C1190.07 716.822 1189.08 717.241 1188.27 718.08C1187.47 718.896 1187.08 720.029 1187.08 721.48C1187.08 722.931 1187.47 724.087 1188.27 724.948C1189.08 725.787 1190.07 726.206 1191.22 726.206C1192.38 726.206 1193.35 725.787 1194.15 724.948C1194.96 724.109 1195.37 722.965 1195.37 721.514ZM1224.16 711.824C1226.38 711.824 1228.15 712.549 1229.46 714C1230.8 715.428 1231.47 717.4 1231.47 719.916V731H1225.69V720.698C1225.69 719.429 1225.36 718.443 1224.7 717.74C1224.04 717.037 1223.16 716.686 1222.05 716.686C1220.94 716.686 1220.05 717.037 1219.4 717.74C1218.74 718.443 1218.41 719.429 1218.41 720.698V731H1212.6V712.028H1218.41V714.544C1219 713.705 1219.79 713.048 1220.79 712.572C1221.79 712.073 1222.91 711.824 1224.16 711.824ZM1244.14 731.272C1242.28 731.272 1240.61 730.875 1239.11 730.082C1237.64 729.289 1236.47 728.155 1235.61 726.682C1234.77 725.209 1234.35 723.486 1234.35 721.514C1234.35 719.565 1234.78 717.853 1235.64 716.38C1236.5 714.884 1237.68 713.739 1239.18 712.946C1240.67 712.153 1242.35 711.756 1244.21 711.756C1246.07 711.756 1247.75 712.153 1249.24 712.946C1250.74 713.739 1251.92 714.884 1252.78 716.38C1253.64 717.853 1254.07 719.565 1254.07 721.514C1254.07 723.463 1253.63 725.186 1252.74 726.682C1251.88 728.155 1250.69 729.289 1249.17 730.082C1247.68 730.875 1246 731.272 1244.14 731.272ZM1244.14 726.24C1245.25 726.24 1246.19 725.832 1246.96 725.016C1247.76 724.2 1248.15 723.033 1248.15 721.514C1248.15 719.995 1247.77 718.828 1247 718.012C1246.25 717.196 1245.32 716.788 1244.21 716.788C1243.08 716.788 1242.14 717.196 1241.39 718.012C1240.64 718.805 1240.27 719.973 1240.27 721.514C1240.27 723.033 1240.63 724.2 1241.35 725.016C1242.1 725.832 1243.03 726.24 1244.14 726.24ZM1284.39 712.028L1279.25 731H1272.83L1269.84 718.692L1266.74 731H1260.35L1255.18 712.028H1261L1263.68 725.594L1266.88 712.028H1273.03L1276.26 725.526L1278.91 712.028H1284.39Z" fill="black"/>
<path d="M1334.06 720.061C1334.65 719.475 1334.65 718.525 1334.06 717.939L1324.51 708.393C1323.93 707.808 1322.98 707.808 1322.39 708.393C1321.81 708.979 1321.81 709.929 1322.39 710.515L1330.88 719L1322.39 727.485C1321.81 728.071 1321.81 729.021 1322.39 729.607C1322.98 730.192 1323.93 730.192 1324.51 729.607L1334.06 720.061ZM1302 720.5H1333V717.5H1302V720.5Z" fill="black"/>
<line y1="0.5" x2="904" y2="0.5" stroke="black"/>
<line x1="903.5" y1="216" x2="903.5" y2="157" stroke="black"/>

<text  fill="white" id="text-placeholder" x="904" y="156"></text>
<text  fill="#5E6161" id="text-placeholder2" x="904" y="409"></text>


<image id="image-placeholder" x="10" y="70" width="100" height="100" href="https://sites.lsa.umich.edu/fastlab/wp-content/uploads/sites/915/2014/04/Wall-Street-Journal-icon.jpg"/>

</svg>
